<svg width="18" height="18" viewBox="0 0 18 18" fill="none" xmlns="http://www.w3.org/2000/svg">
<g clip-path="url(#clip0)">
<path d="M1.68752 2.94197V8.65247C1.68754 10.4575 2.23451 12.2201 3.25634 13.708C4.27817 15.1959 5.72689 16.3392 7.41152 16.9872L8.19227 17.2872C8.71221 17.4872 9.28784 17.4872 9.80777 17.2872L10.5885 16.9872C12.2732 16.3392 13.7219 15.1959 14.7437 13.708C15.7655 12.2201 16.3125 10.4575 16.3125 8.65247V2.94197C16.314 2.72709 16.2533 2.51636 16.1378 2.33514C16.0223 2.15392 15.8569 2.00992 15.6615 1.92047C13.5614 1.00382 11.2914 0.540969 9.00002 0.562224C6.70867 0.540969 4.43865 1.00382 2.33852 1.92047C2.14313 2.00992 1.97775 2.15392 1.86225 2.33514C1.74676 2.51636 1.68609 2.72709 1.68752 2.94197V2.94197Z" stroke="#4C84FF" stroke-width="1.2" stroke-linecap="round" stroke-linejoin="round"/>
<path d="M11.8125 3.9375H6.1875C5.56618 3.9375 5.0625 4.44118 5.0625 5.0625V10.6875C5.0625 11.3088 5.56618 11.8125 6.1875 11.8125H11.8125C12.4338 11.8125 12.9375 11.3088 12.9375 10.6875V5.0625C12.9375 4.44118 12.4338 3.9375 11.8125 3.9375Z" stroke="#4C84FF" stroke-width="1.2" stroke-linecap="round" stroke-linejoin="round"/>
<path d="M7.3125 7.875H10.6875" stroke="#4C84FF" stroke-width="1.2" stroke-linecap="round" stroke-linejoin="round"/>
<path d="M9 6.1875V9.5625" stroke="#4C84FF" stroke-width="1.2" stroke-linecap="round" stroke-linejoin="round"/>
</g>
<defs>
<clipPath id="clip0">
<rect width="18" height="18" fill="white"/>
</clipPath>
</defs>
</svg>
